<svg xmlns="http://www.w3.org/2000/svg" width="183" height="127.437" viewBox="0 0 183 127.437">
  <g id="quote_2_" data-name="quote (2)" transform="translate(0)" opacity="0.1">
    <g id="Group_5886" data-name="Group 5886" transform="translate(0 0)">
      <path id="Path_279195" data-name="Path 279195" d="M140.109,77.728a42.891,42.891,0,0,1,6.063,85.352,74.639,74.639,0,0,0,13.5,33.582,5.359,5.359,0,0,1-6.409,8.084,90.934,90.934,0,0,1-56.043-84.127A42.936,42.936,0,0,1,140.109,77.728Zm-97.219,0a42.891,42.891,0,0,1,6.063,85.352,74.639,74.639,0,0,0,13.5,33.582,5.359,5.359,0,0,1-6.409,8.084A90.934,90.934,0,0,1,0,120.619,42.936,42.936,0,0,1,42.891,77.728Z" transform="translate(0 -77.728)" fill="#09bc8a"/>
    </g>
  </g>
</svg>
