<svg id="brand-sketch" xmlns="http://www.w3.org/2000/svg" width="48" height="48" viewBox="0 0 48 48">
  <path id="Path_1023" data-name="Path 1023" d="M0,0H48V48H0Z" fill="none"/>
  <path id="Path_1024" data-name="Path 1024" d="M3.508,17.752l16,17.578a2.014,2.014,0,0,0,2.982,0l16-17.58a2.012,2.012,0,0,0,.174-2.486L31.59,4.876A2,2,0,0,0,29.944,4H12.092a2,2,0,0,0-1.646.872L3.366,15.26a2.015,2.015,0,0,0,.174,2.492Z" transform="translate(3.016 4.004)" fill="none" stroke="#000" stroke-linecap="round" stroke-linejoin="round" stroke-width="3"/>
  <path id="Path_12649" data-name="Path 12649" d="M1.074,10.861H33.862" transform="translate(6.489 9.701)" fill="none" stroke="#000" stroke-linecap="round" stroke-linejoin="round" stroke-width="3"/>
  <path id="Path_12650" data-name="Path 12650" d="M0,0H15.751" transform="matrix(0.616, 0.788, -0.788, 0.616, 14.26, 8.15)" fill="none" stroke="#000" stroke-linecap="round" stroke-linejoin="round" stroke-width="3"/>
  <path id="Path_12652" data-name="Path 12652" d="M0,0H15.751" transform="matrix(-0.616, 0.788, -0.788, -0.616, 33.655, 8.151)" fill="none" stroke="#000" stroke-linecap="round" stroke-linejoin="round" stroke-width="3"/>
</svg>
