<svg id="bulb" xmlns="http://www.w3.org/2000/svg" width="40" height="40" viewBox="0 0 40 40">
  <path id="Path_1171" data-name="Path 1171" d="M0,0H40V40H0Z" fill="none"/>
  <path id="Path_1172" data-name="Path 1172" d="M3,18H4.667M18,3V4.667M31.333,18H33M7.333,7.333,8.5,8.5M28.667,7.333,27.5,8.5" transform="translate(2 2)" fill="none" stroke="#161616" stroke-linecap="round" stroke-linejoin="round" stroke-width="3"/>
  <path id="Path_1173" data-name="Path 1173" d="M10.334,22a8.333,8.333,0,1,1,10,0,5.833,5.833,0,0,0-1.667,5A3.333,3.333,0,0,1,12,27a5.833,5.833,0,0,0-1.667-5" transform="translate(4.666 4.666)" fill="none" stroke="#161616" stroke-linecap="round" stroke-linejoin="round" stroke-width="3"/>
  <line id="Line_831" data-name="Line 831" x2="7.667" transform="translate(16.167 28.334)" fill="none" stroke="#161616" stroke-linecap="round" stroke-linejoin="round" stroke-width="3"/>
</svg>
