<svg id="messages" xmlns="http://www.w3.org/2000/svg" width="40" height="40" viewBox="0 0 40 40">
  <path id="Path_2718" data-name="Path 2718" d="M0,0H40V40H0Z" fill="none"/>
  <path id="Path_2719" data-name="Path 2719" d="M28.333,21.333l-5-5H11.667A1.667,1.667,0,0,1,10,14.667v-10A1.667,1.667,0,0,1,11.667,3h15a1.667,1.667,0,0,1,1.667,1.667V21.333" transform="translate(6.667 2)" fill="none" stroke="#09bc8a" stroke-linecap="round" stroke-linejoin="round" stroke-width="2.5"/>
  <path id="Path_2720" data-name="Path 2720" d="M21.333,18.333v3.333a1.667,1.667,0,0,1-1.667,1.667H8l-5,5V11.667A1.667,1.667,0,0,1,4.667,10H8" transform="translate(2 6.667)" fill="none" stroke="#09bc8a" stroke-linecap="round" stroke-linejoin="round" stroke-width="2.5"/>
</svg>
