<svg id="puzzle" xmlns="http://www.w3.org/2000/svg" width="48" height="48" viewBox="0 0 48 48">
  <path id="Path_3030" data-name="Path 3030" d="M0,0H48V48H0Z" fill="none"/>
  <path id="Path_3031" data-name="Path 3031" d="M5,11h6a2,2,0,0,0,2-2V7a4,4,0,1,1,8,0V9a2,2,0,0,0,2,2h6a2,2,0,0,1,2,2v6a2,2,0,0,0,2,2h2a4,4,0,1,1,0,8H33a2,2,0,0,0-2,2v6a2,2,0,0,1-2,2H23a2,2,0,0,1-2-2V35a4,4,0,1,0-8,0v2a2,2,0,0,1-2,2H5a2,2,0,0,1-2-2V31a2,2,0,0,1,2-2H7a4,4,0,1,0,0-8H5a2,2,0,0,1-2-2V13a2,2,0,0,1,2-2" transform="translate(3 3)" fill="none" stroke="#161616" stroke-linecap="round" stroke-linejoin="round" stroke-width="3"/>
</svg>
