<svg id="report-analytics" xmlns="http://www.w3.org/2000/svg" width="40" height="40" viewBox="0 0 40 40">
  <path id="Path_3117" data-name="Path 3117" d="M0,0H40V40H0Z" fill="none"/>
  <path id="Path_3118" data-name="Path 3118" d="M11.667,5H8.333A3.333,3.333,0,0,0,5,8.333v20a3.333,3.333,0,0,0,3.333,3.333H25a3.333,3.333,0,0,0,3.333-3.333v-20A3.333,3.333,0,0,0,25,5H21.667" transform="translate(3.333 3.171)" fill="none" stroke="#000" stroke-linecap="round" stroke-linejoin="round" stroke-width="3"/>
  <rect id="Rectangle_231" data-name="Rectangle 231" width="9.827" height="6.206" rx="2" transform="translate(15.03 5.165)" fill="none" stroke="#000" stroke-linecap="round" stroke-linejoin="round" stroke-width="3"/>
  <path id="Path_3119" data-name="Path 3119" d="M9,20.333V12" transform="translate(6 7.838)" fill="none" stroke="#000" stroke-linecap="round" stroke-linejoin="round" stroke-width="3"/>
  <path id="Path_3120" data-name="Path 3120" d="M12,17.667V16" transform="translate(8 10.504)" fill="none" stroke="#000" stroke-linecap="round" stroke-linejoin="round" stroke-width="3"/>
  <path id="Path_3121" data-name="Path 3121" d="M15,19V14" transform="translate(10 9.172)" fill="none" stroke="#000" stroke-linecap="round" stroke-linejoin="round" stroke-width="3"/>
</svg>
