<svg id="settings" xmlns="http://www.w3.org/2000/svg" width="40" height="40" viewBox="0 0 40 40">
  <path id="Path_3269" data-name="Path 3269" d="M0,0H40V40H0Z" fill="none"/>
  <path id="Path_3270" data-name="Path 3270" d="M15.208,5.195a2.873,2.873,0,0,1,5.583,0A2.873,2.873,0,0,0,25.08,6.972a2.875,2.875,0,0,1,3.95,3.95,2.873,2.873,0,0,0,1.775,4.287,2.873,2.873,0,0,1,0,5.583,2.873,2.873,0,0,0-1.777,4.288,2.875,2.875,0,0,1-3.95,3.95,2.873,2.873,0,0,0-4.287,1.775,2.873,2.873,0,0,1-5.583,0,2.873,2.873,0,0,0-4.288-1.777,2.875,2.875,0,0,1-3.95-3.95A2.873,2.873,0,0,0,5.2,20.792a2.873,2.873,0,0,1,0-5.583A2.873,2.873,0,0,0,6.972,10.92a2.875,2.875,0,0,1,3.95-3.95A2.871,2.871,0,0,0,15.208,5.2Z" transform="translate(2 2)" fill="none" stroke="#161616" stroke-linecap="round" stroke-linejoin="round" stroke-width="3"/>
  <circle id="Ellipse_475" data-name="Ellipse 475" cx="4.913" cy="4.913" r="4.913" transform="translate(15.082 15.152)" fill="none" stroke="#161616" stroke-linecap="round" stroke-linejoin="round" stroke-width="3"/>
</svg>
