<svg xmlns="http://www.w3.org/2000/svg" width="200.376" height="45.839" viewBox="0 0 200.376 45.839">
  <g id="Artboard_154" data-name="Artboard 154" transform="translate(-1.046 -6.924)">
    <path id="Path_22364" data-name="Path 22364" d="M55.7,6.932H17A9.273,9.273,0,0,0,7.762,14.2L1.153,43.808a7.611,7.611,0,0,0,7.357,8.88h3.26l4.25-18.914,2.537-11.417a6.178,6.178,0,0,1,6.152-4.833h25.6l-.863,3.806a7.713,7.713,0,0,1-7.687,6.038H29.77a3.108,3.108,0,0,0-3.07,2.385l-.964,4.1h14.7l-.71,3.222a6.19,6.19,0,0,1-6.165,4.858H23.821L21.284,52.763h24.1a11.962,11.962,0,0,0,11.062-8.956l1.091-4.947a9.209,9.209,0,0,0,.178-2.664,6.85,6.85,0,0,0-7.18-6.343A11.848,11.848,0,0,0,61.522,20.9l1.1-4.947a9.133,9.133,0,0,0,.165-2.664A6.787,6.787,0,0,0,55.7,6.932Z" transform="translate(0 0)" fill="#2063f0"/>
    <path id="Path_22365" data-name="Path 22365" d="M59.3,16.934H69.757A8.88,8.88,0,0,1,74.919,18.2a4.148,4.148,0,0,1,1.738,3.806,5.15,5.15,0,0,1-1.408,3.374,5.683,5.683,0,0,1-3.273,1.789V27.3A4.5,4.5,0,0,1,74.3,29.035,4.719,4.719,0,0,1,75.11,32a5.81,5.81,0,0,1-1.269,3.577,7.129,7.129,0,0,1-3.019,2.169,11.176,11.176,0,0,1-4.072.723h-12Zm7.611,17.759a4.148,4.148,0,0,0,2.537-.761A2.537,2.537,0,0,0,70.53,31.8a2.182,2.182,0,0,0-.647-1.751,3.07,3.07,0,0,0-2.118-.634H61.258L60.141,34.63Zm1.7-9.083a3.285,3.285,0,0,0,2.372-.786,2.727,2.727,0,0,0,.825-1.89,1.814,1.814,0,0,0-.584-1.535,2.385,2.385,0,0,0-1.662-.571H63.059l-.977,4.744Z" transform="translate(14.421 2.683)" fill="#161616"/>
    <path id="Path_22366" data-name="Path 22366" d="M87.585,34.136a.964.964,0,0,0,.647.228h.9L88.5,37.371a6,6,0,0,1-2.537.507,2.753,2.753,0,0,1-1.979-.7,2.664,2.664,0,0,1-.825-1.852h-.19a6.343,6.343,0,0,1-2.283,1.89,5.988,5.988,0,0,1-2.753.66,4.782,4.782,0,0,1-3.894-1.687,6.99,6.99,0,0,1-1.269-4.846,16.174,16.174,0,0,1,.951-4.9,10.656,10.656,0,0,1,2.537-4.173,5.784,5.784,0,0,1,4.2-1.674,5.848,5.848,0,0,1,2.778.584A4.719,4.719,0,0,1,85.061,22.9h.19l1.04-1.915h3.641l-1.586,7.535c-.7,3.311-1.053,4.973-1.053,5A.736.736,0,0,0,87.585,34.136Zm-5.391-1.129a7.167,7.167,0,0,0,1.484-2.7,11.164,11.164,0,0,0,.52-2.918c.076-2.118-.774-3.171-2.537-3.171a3.184,3.184,0,0,0-2.537,1.142A6.952,6.952,0,0,0,77.7,28.072a13.206,13.206,0,0,0-.482,3.019c-.076,2.03.761,3.044,2.537,3.044a3.171,3.171,0,0,0,2.436-1.129Z" transform="translate(19.248 3.671)" fill="#161616"/>
    <path id="Path_22367" data-name="Path 22367" d="M88.8,36.331a5.645,5.645,0,0,1-1.662-4.719,15.6,15.6,0,0,1,1.1-5.429A9.273,9.273,0,0,1,91.3,22.149a8.258,8.258,0,0,1,5.074-1.535,8.537,8.537,0,0,1,5.074,1.269,4.161,4.161,0,0,1,1.725,3.806A8.336,8.336,0,0,1,103,27.2h-4.3a5.936,5.936,0,0,1,.089-.812,2.182,2.182,0,0,0-.584-1.738,2.537,2.537,0,0,0-1.814-.6,3.59,3.59,0,0,0-2.841,1.269,8.334,8.334,0,0,0-1.636,3.691,13.955,13.955,0,0,0-.368,2.245,3.349,3.349,0,0,0,.622,2.334,2.8,2.8,0,0,0,2.22.774,3.514,3.514,0,0,0,2.41-.812,4.1,4.1,0,0,0,1.269-2.321H102.2a8.03,8.03,0,0,1-2.639,4.947,7.9,7.9,0,0,1-5.188,1.649,8.4,8.4,0,0,1-5.569-1.5Z" transform="translate(23.107 3.671)" fill="#161616"/>
    <path id="Path_22368" data-name="Path 22368" d="M98.885,44.331a8.614,8.614,0,0,1-1.4-.343l.647-3.019H99.71a1.522,1.522,0,0,0,1.611-1.345l2.93-13.852h-2.309l.748-3.514h2.359l.368-1.89a6.406,6.406,0,0,1,1.649-3.247,4.554,4.554,0,0,1,3.476-1.269,9.133,9.133,0,0,1,1.586.152,10.148,10.148,0,0,1,1.383.355l-.634,3.006H111.3a1.535,1.535,0,0,0-1.624,1.357l-.33,1.573h2.918l-.748,3.514H108.6L105.621,39.98a6.343,6.343,0,0,1-1.636,3.247A4.6,4.6,0,0,1,100.5,44.5,7.992,7.992,0,0,1,98.885,44.331Z" transform="translate(25.897 2.395)" fill="#161616"/>
    <path id="Path_22369" data-name="Path 22369" d="M112.306,37.005a6.533,6.533,0,0,1-2.537-2.461,6.343,6.343,0,0,1-.888-3.539,15.437,15.437,0,0,1,.3-2.74,9.7,9.7,0,0,1,3.1-5.683,9.425,9.425,0,0,1,6.343-1.979,8.093,8.093,0,0,1,3.806.875,6.469,6.469,0,0,1,3.45,5.975,15.362,15.362,0,0,1-.317,2.74,9.679,9.679,0,0,1-3.108,5.683,9.539,9.539,0,0,1-6.343,1.979,7.954,7.954,0,0,1-3.806-.85Zm7.611-3.869a6.584,6.584,0,0,0,1.624-3.806,10.351,10.351,0,0,0,.19-1.827,3.247,3.247,0,0,0-.9-2.537,3.539,3.539,0,0,0-2.613-.913,4.491,4.491,0,0,0-3.362,1.269,6.672,6.672,0,0,0-1.624,3.806,13.247,13.247,0,0,0-.19,1.827,3.285,3.285,0,0,0,.9,2.537,3.59,3.59,0,0,0,2.626.913,4.529,4.529,0,0,0,3.311-1.269Z" transform="translate(28.954 3.669)" fill="#161616"/>
    <path id="Path_22370" data-name="Path 22370" d="M126.864,20.981h3.552l-.089,2.664h.19a8.753,8.753,0,0,1,1.738-2.258,3.45,3.45,0,0,1,2.321-.786,5.074,5.074,0,0,1,1.205.127,2.156,2.156,0,0,1,.545.152l-.736,4.034h-1.269a4.529,4.529,0,0,0-3.3,1.154,6.621,6.621,0,0,0-1.674,3.463l-1.687,7.979H123.35Z" transform="translate(32.841 3.672)" fill="#161616"/>
    <path id="Path_22371" data-name="Path 22371" d="M134.593,36.336a5.607,5.607,0,0,1-1.674-4.719,15.9,15.9,0,0,1,1.116-5.455,9.3,9.3,0,0,1,3.07-4.034,8.2,8.2,0,0,1,5.074-1.535,8.537,8.537,0,0,1,5.074,1.269,4.174,4.174,0,0,1,1.738,3.806,9.643,9.643,0,0,1-.178,1.51H144.45a7.907,7.907,0,0,0,.089-.812,2.182,2.182,0,0,0-.584-1.738,2.537,2.537,0,0,0-1.814-.6A3.615,3.615,0,0,0,139.3,25.3a8.626,8.626,0,0,0-1.636,3.691,13.662,13.662,0,0,0-.355,2.321,3.285,3.285,0,0,0,.622,2.334,2.8,2.8,0,0,0,2.22.774,3.5,3.5,0,0,0,2.4-.812,4.034,4.034,0,0,0,1.269-2.321h4.148a8.093,8.093,0,0,1-2.639,4.947,7.954,7.954,0,0,1-5.2,1.649A8.372,8.372,0,0,1,134.593,36.336Z" transform="translate(35.4 3.666)" fill="#161616"/>
    <path id="Path_22372" data-name="Path 22372" d="M148.126,36.34a5.619,5.619,0,0,1-1.687-4.719,15.73,15.73,0,0,1,1.1-5.429,9.184,9.184,0,0,1,3.044-4.047,8.271,8.271,0,0,1,5.163-1.56,7.4,7.4,0,0,1,5.074,1.51,5.772,5.772,0,0,1,1.522,4.681,11.748,11.748,0,0,1-.33,2.448l-.228,1H150.967a9.354,9.354,0,0,0-.165,1.446,2.88,2.88,0,0,0,.622,2.156,3.044,3.044,0,0,0,2.258.7,3.336,3.336,0,0,0,3.628-2.854h4.25a7.205,7.205,0,0,1-2.664,4.655,10.059,10.059,0,0,1-10.732,0Zm9.831-8.88a5.516,5.516,0,0,0,.127-1.066,2,2,0,0,0-2.271-2.359,3.933,3.933,0,0,0-2.639.85,5.582,5.582,0,0,0-1.56,2.537Z" transform="translate(39.03 3.662)" fill="#161616"/>
  </g>
</svg>
