<svg xmlns="http://www.w3.org/2000/svg" width="653.752" height="366.164" viewBox="0 0 653.752 366.164">
  <g id="Group_5281" data-name="Group 5281" transform="translate(-663 -220.82)">
    <path id="Path_22234" data-name="Path 22234" d="M665.058,220.1C658.737,148.759,613.116,88.067,543.9,61.942c-18.2-6.872-37.927-11.468-58.055-11.523-82.428-.235-186.473,45-238.288,51.246S142.563,54.89,66.592,119.383s-81.371,232.04,48.429,278.951,214.386-25.095,271.655-1.192S551.359,425,620.711,380.076C661.87,353.455,670.548,282.017,665.058,220.1Z" transform="translate(650.211 170.401)" fill="#0b5cab" opacity="0.1"/>
    <g id="Group_5280" data-name="Group 5280" transform="translate(731.629 228.1)">
      <g id="freepik--Plant--inject-3" transform="translate(16.479 0)">
        <path id="Path_278824" data-name="Path 278824" d="M109.807,447.776C103.167,336,146.019,258.695,146.451,257.92l2.379,1.417c-.432.764-42.885,77.414-36.311,188.384Z" transform="translate(-25.797 -116.162)" fill="#9e9e9e"/>
        <path id="Path_278825" data-name="Path 278825" d="M109.035,440.025c-4.947-83.479,8.6-193.818,8.732-194.924l2.723.443c-.144,1.107-13.657,111.2-8.721,194.438Z" transform="translate(-25.921 -117.53)" fill="#9e9e9e"/>
        <path id="Path_278826" data-name="Path 278826" d="M104.483,430.738c-4.77-44.2-3.885-75.068-2.291-93.174,1.726-19.71,4.549-28.774,4.67-29.184l2.612.919c-.111.365-11.333,37.252-2.269,121.262Z" transform="translate(-26.671 -110.777)" fill="#9e9e9e"/>
        <path id="Path_278827" data-name="Path 278827" d="M113.582,409.659l-2.723-.387c7.326-71.759.409-106.465.332-106.808l2.678-.454C113.948,302.353,120.975,337.414,113.582,409.659Z" transform="translate(-25.61 -111.457)" fill="#9e9e9e"/>
        <path id="Path_278828" data-name="Path 278828" d="M117.272,422.3l-2.734-.266c2.678-46.969-6.939-72.047-7.039-72.29l2.534-.908C110.444,349.869,119.984,374.659,117.272,422.3Z" transform="translate(-25.969 -106.46)" fill="#9e9e9e"/>
        <path id="Path_278829" data-name="Path 278829" d="M118.6,269.851a132.594,132.594,0,0,1-14.642-40.074c-4.039-22.389,4.084-40.085,14.575-51.019s27.347-18.737,37.4-27.579,25.653-21.348,25.653-21.348-6.009,31.231-5.888,59.862-16.379,45.286-28.509,54.14S118.6,269.851,118.6,269.851Z" transform="translate(-26.459 -129.83)" fill="#278806"/>
        <path id="Path_278830" data-name="Path 278830" d="M142.728,264.572s-6.983-30.888,13.989-36.422,26.24,5.39,31.442,6.142,13.081,1.616,18.814,7.747,4.847,10.215,8.909,13.867,7.946,5.677,9.639,12.993,4.427,14.9,1.328,19.445c0,0-8.666-22.842-28.675-27.225S146.822,262.934,142.728,264.572Z" transform="translate(-22.329 -119.505)" fill="#278806"/>
        <path id="Path_278831" data-name="Path 278831" d="M118.3,299.309s-3.221-28.11-9.02-42.686-24.049-28.11-36.234-33.312-21.16-8.356-23.96-13.015-8.732-9.894-6.64,2.081,4.427,31.231,10.458,39.565l6.065,8.322s21.857,0,34.308,12.495,25.842,33.832,25.842,33.832Z" transform="translate(-32.958 -121.804)" fill="#278806"/>
        <path id="Path_278832" data-name="Path 278832" d="M119.987,302.37s-23.374-24.458-34.651-32.792-25.886-9.363-34.253-10.4S33.83,244.6,33.83,244.6s6.474,31.231,15.494,47.887,32.415,16.136,44.91,16.136S119.987,302.37,119.987,302.37Z" transform="translate(-33.83 -117.583)" fill="#278806"/>
        <path id="Path_278833" data-name="Path 278833" d="M104.85,315.968s1.107-12.495,7.559-18.748,18.028-4.681,25.454-2.081,10.824-2.6,16.6-1.04,14.387,7.293,19.766,12.495,12.794,20.3,12.9,22.909-11.875-10.414-20.873-14.055-25.709-4.726-37.163-4.726S104.85,315.968,104.85,315.968Z" transform="translate(-26.252 -112.434)" fill="#278806"/>
        <path id="Path_278834" data-name="Path 278834" d="M116.723,346.13s-3.077-11.41-12.594-15.1-22.986-2.081-27.092-2.081-11.665-5.213-20.2,2.6a42.232,42.232,0,0,0-11.3,16.656,37.551,37.551,0,0,1,23.6-8.854c14.044,0,19.733-1.04,27.258,4.693s22.92,14.575,22.92,14.575Z" transform="translate(-32.58 -108.764)" fill="#278806"/>
        <path id="Path_278835" data-name="Path 278835" d="M120.757,385.825s2.036-26.561,6.419-33.832,20.02-19.788,27.668-24.469,18.9-8.854,18.9-8.854a101.663,101.663,0,0,1-10.813,29.14c-8.256,14.575-28.653,24.989-30.988,30.722a61.232,61.232,0,0,0-3.232,9.883s-.775-6.242,13.192-8.322,26.085,1.56,30.988,6.762,11.377,10.934,12.937,10.934,11.731,6.762,11.731,6.762-7.681,3.121-19.268,0-21.658-7.747-28.94-7.747-21.758,2.6-21.758,2.6,23.053,3.641,26.782,5.722,16.988,8.333,16.988,8.333-16.6,1.04-25.288,5.2-12.594,10.414-13,13.015-.764,6.773-.764,6.773l.31,7.8H98.313s.232-19.777-9.96-28.11-26.384-8.854-26.384-8.854l-10.79,3.641s2.379-5.733,12.074-10.414,16.877-7.282,22.61-7.282a38.016,38.016,0,0,1,9.407,1.04S84.955,385.858,74,385.338s-25.476,3.608-26.993,4.648,26.9-16.656,36.3-16.136a33.2,33.2,0,0,1,16.368,5.733l-5.08-9.374s4.427-5.2,15.317,5.2Z" transform="translate(-32.43 -109.679)" fill="#278806"/>
        <g id="Group_5279" data-name="Group 5279" transform="translate(13.978 28.487)" opacity="0.2">
          <path id="Path_278836" data-name="Path 278836" d="M153.34,163.793c3.32-5.024,5.722-8.223,5.722-8.223" transform="translate(-35.055 -155.57)" fill="none" stroke="#000" stroke-width="1"/>
          <path id="Path_278837" data-name="Path 278837" d="M119.28,253.781s11.632-32.8,17.907-53.2c3.32-10.923,10.436-23.429,16.28-32.681" transform="translate(-38.69 -154.254)" fill="none" stroke="#000" stroke-width="1"/>
          <path id="Path_278838" data-name="Path 278838" d="M148.052,220.83s-7.847,5.877-17.707,13.281-8.245,5.1-8.245,5.1l-9.02-15.693" transform="translate(-39.351 -148.606)" fill="none" stroke="#000" stroke-width="1"/>
          <path id="Path_278839" data-name="Path 278839" d="M122,204.16c2.357,6.286,6.275,18.814,6.275,18.814l25.1-15.671" transform="translate(-38.399 -150.385)" fill="none" stroke="#000" stroke-width="1"/>
          <line id="Line_1731" data-name="Line 1731" y1="5.655" x2="9.617" transform="translate(115.562 30.634)" fill="none" stroke="#000" stroke-width="1"/>
          <path id="Path_278840" data-name="Path 278840" d="M130.15,175.8l5.877,23.938,12.273-7.216" transform="translate(-37.53 -153.411)" fill="none" stroke="#000" stroke-width="1"/>
          <path id="Path_278841" data-name="Path 278841" d="M194.1,245.08a13.027,13.027,0,0,1,3.774,2.213c4.7,3.929,2.357,4.316,9.418,9.031S223.738,278.6,221.2,286.493" transform="translate(-30.706 -146.019)" fill="none" stroke="#000" stroke-width="1"/>
          <path id="Path_278842" data-name="Path 278842" d="M181.55,236.43a8.267,8.267,0,0,0,3.929,6.64,13.945,13.945,0,0,0,4.593,1.572" transform="translate(-32.045 -146.942)" fill="none" stroke="#000" stroke-width="1"/>
          <path id="Path_278843" data-name="Path 278843" d="M63.737,234.726c-4.792-4.56-7.647-7.526-7.647-7.526" transform="translate(-45.432 -147.926)" fill="none" stroke="#000" stroke-width="1"/>
          <path id="Path_278844" data-name="Path 278844" d="M99.731,272.832c-4.427-6.895-11.322-16.6-19.71-23.573-4.98-4.172-9.507-8.212-13.28-11.709" transform="translate(-44.296 -146.822)" fill="none" stroke="#000" stroke-width="1"/>
          <path id="Path_278845" data-name="Path 278845" d="M101.322,277.651s-.919-1.815-2.612-4.681" transform="translate(-40.885 -143.042)" fill="none" stroke="#000" stroke-width="1"/>
          <line id="Line_1732" data-name="Line 1732" x1="15.306" y1="26.295" transform="translate(30.224 85.56)" fill="none" stroke="#000" stroke-width="1"/>
          <line id="Line_1733" data-name="Line 1733" x1="13.347" y1="3.929" transform="translate(14.531 92.62)" fill="none" stroke="#000" stroke-width="1"/>
          <path id="Path_278846" data-name="Path 278846" d="M78.389,289.439a55.06,55.06,0,0,1-7.581-3.409C61.389,280.5,50,272.695,46.46,267.98" transform="translate(-46.46 -143.575)" fill="none" stroke="#000" stroke-width="1"/>
          <path id="Path_278847" data-name="Path 278847" d="M109.61,297.9s-16.6-4.36-29.66-8.854" transform="translate(-42.886 -141.327)" fill="none" stroke="#000" stroke-width="1"/>
          <path id="Path_278848" data-name="Path 278848" d="M52.5,285.075l17.652.387L61.918,273.3" transform="translate(-45.815 -143.007)" fill="none" stroke="#000" stroke-width="1"/>
          <path id="Path_278849" data-name="Path 278849" d="M72,294.276,90.836,293.1l-10.2-14.133" transform="translate(-43.735 -142.402)" fill="none" stroke="#000" stroke-width="1"/>
          <path id="Path_278850" data-name="Path 278850" d="M146.15,300.58c.941.476,2.081,1.007,3.475,1.594,7.459,3.132,7.847.387,14.907,5.1s8.632,9.407,12.174,13.336" transform="translate(-35.822 -140.096)" fill="none" stroke="#000" stroke-width="1"/>
          <path id="Path_278851" data-name="Path 278851" d="M142.2,297.76s.177.719,2.612,2.158" transform="translate(-36.244 -140.397)" fill="none" stroke="#000" stroke-width="1"/>
          <path id="Path_278852" data-name="Path 278852" d="M142.21,339.626a57.338,57.338,0,0,0,5.478-7.116" transform="translate(-36.243 -136.689)" fill="none" stroke="#000" stroke-width="1"/>
          <path id="Path_278853" data-name="Path 278853" d="M117,370.936s11.067-16.877,20.042-24.7c.941-.819,1.837-1.638,2.678-2.435" transform="translate(-38.933 -135.484)" fill="none" stroke="#000" stroke-width="1"/>
        </g>
      </g>
      <g id="freepik--Table--inject-3" transform="translate(0 336.528)">
        <line id="Line_1734" data-name="Line 1734" x1="517.021" transform="translate(0)" fill="none" stroke="#263238" stroke-linecap="round" stroke-linejoin="round" stroke-width="1"/>
      </g>
      <g id="freepik--Character--inject-3" transform="translate(235.828 35.088)">
        <path id="Path_278854" data-name="Path 278854" d="M469.673,280.16H342.136a6.286,6.286,0,0,0-6.308,4.759L301,450.317H441.663l34.308-163.184C476.745,283.514,473.713,280.16,469.673,280.16Z" transform="translate(-224.669 -148.877)" fill="#949494" stroke="#263238" stroke-linecap="round" stroke-linejoin="round" stroke-width="1"/>
        <path id="Path_278855" data-name="Path 278855" d="M311.028,177.82s-16.424,11.067-15.494,19.4,9.85,15.228,9.85,15.228,12.24-29.549,13.137-29.881S311.028,177.82,311.028,177.82Z" transform="translate(-225.257 -159.797)" fill="#263238" stroke="#263238" stroke-linecap="round" stroke-linejoin="round" stroke-width="1"/>
        <path id="Path_278856" data-name="Path 278856" d="M302.837,241.157s2.833,12.971.808,19.456L301.62,267.1s18.637,5.666,24.724,2.424,6.884-5.268,6.884-5.268S309.721,237.914,302.837,241.157Z" transform="translate(-224.603 -153.068)" fill="#263238" stroke="#263238" stroke-linecap="round" stroke-linejoin="round" stroke-width="1"/>
        <path id="Path_278857" data-name="Path 278857" d="M300.449,298.715s32.161-2.213,48.241,0,18.017,2.634,18.017,2.634-14.155,49.2-23.163,68.505-29.582,35.691-29.582,35.691S282.111,350.819,300.449,298.715Z" transform="translate(-225.335 -147.002)" fill="#263238" stroke="#263238" stroke-linecap="round" stroke-linejoin="round" stroke-width="1"/>
        <path id="Path_278858" data-name="Path 278858" d="M314.112,180.556s-9.85,21.492-10.746,26.262-.3,14.033-.3,17.619-2.977,16.412-2.977,19.7,12.528,29.25,15.815,30.434,7.459-.587,7.459-.587,1.494,11.067,1.2,13.491-7.747,5.677-7.747,5.677-9.85,19.4-7.747,26.262,9.85,13.435,23.872,11.643,20.6-6.275,24.48-17.907,6.862-23.241,6.862-23.241-4.427.531-4.427-4.549.3-29.25.3-29.25,4.172-41.778-8.666-58.8S318.594,172.533,314.112,180.556Z" transform="translate(-224.767 -159.844)" fill="#fff" stroke="#263238" stroke-linecap="round" stroke-linejoin="round" stroke-width="1"/>
        <path id="Path_278859" data-name="Path 278859" d="M307.64,178.96s25.366,25.974,34.02,40.893.9,57.007,4.183,57.007,14.387-.321,40.1-12.561,25.078-36.112,18.814-53.421-21.592-37.628-35.315-44.445S317.789,156.881,307.64,178.96Z" transform="translate(-223.961 -161.535)" fill="#263238" stroke="#263238" stroke-linecap="round" stroke-linejoin="round" stroke-width="1"/>
        <path id="Path_278860" data-name="Path 278860" d="M344.71,221.39c4.759,9.728,14.066,30.7,12.462,42.929" transform="translate(-220.005 -155.148)" fill="none" stroke="#b2b2b2" stroke-linecap="round" stroke-linejoin="round" stroke-width="1"/>
        <path id="Path_278861" data-name="Path 278861" d="M342.3,216.66s.4.742,1.107,2.047" transform="translate(-220.262 -155.653)" fill="none" stroke="#b2b2b2" stroke-linecap="round" stroke-linejoin="round" stroke-width="1"/>
        <path id="Path_278862" data-name="Path 278862" d="M381.14,241.08a22.688,22.688,0,0,1,.4,8.8" transform="translate(-216.118 -153.047)" fill="none" stroke="#b2b2b2" stroke-linecap="round" stroke-linejoin="round" stroke-width="1"/>
        <path id="Path_278863" data-name="Path 278863" d="M317.5,178.18s-5.534,3.176,35.415,30.246c21.182,13.978,29.936,25.941,33.445,34.463" transform="translate(-222.935 -159.759)" fill="none" stroke="#b2b2b2" stroke-linecap="round" stroke-linejoin="round" stroke-width="1"/>
        <path id="Path_278864" data-name="Path 278864" d="M322.47,221a10.182,10.182,0,0,0,11.067,1.2" transform="translate(-222.378 -155.19)" fill="none" stroke="#263238" stroke-linecap="round" stroke-linejoin="round" stroke-width="1"/>
        <path id="Path_278865" data-name="Path 278865" d="M304.94,220.43s2.391,2.988,6.563.3" transform="translate(-224.249 -155.25)" fill="none" stroke="#263238" stroke-linecap="round" stroke-linejoin="round" stroke-width="1"/>
        <path id="Path_278866" data-name="Path 278866" d="M310.34,210.73s2.977,7.16,2.977,10.447a11.664,11.664,0,0,1-1.494,5.666" transform="translate(-223.673 -156.285)" fill="none" stroke="#263238" stroke-linecap="round" stroke-linejoin="round" stroke-width="1"/>
        <path id="Path_278867" data-name="Path 278867" d="M308.72,238.23a15.959,15.959,0,0,0,4.77,2.689" transform="translate(-223.846 -153.351)" fill="none" stroke="#263238" stroke-linecap="round" stroke-linejoin="round" stroke-width="1"/>
        <path id="Path_278868" data-name="Path 278868" d="M311.41,245.086s9.85,4.427,16.722-.9" transform="translate(-223.559 -152.715)" fill="none" stroke="#263238" stroke-linecap="round" stroke-linejoin="round" stroke-width="1"/>
        <path id="Path_278869" data-name="Path 278869" d="M319.24,210.827s12.528-3.885,17.309,3.575" transform="translate(-222.723 -156.383)" fill="none" stroke="#263238" stroke-linecap="round" stroke-linejoin="round" stroke-width="1"/>
        <path id="Path_278870" data-name="Path 278870" d="M304.4,209.222s2.988-2.391,4.781-.3" transform="translate(-224.307 -156.57)" fill="none" stroke="#263238" stroke-linecap="round" stroke-linejoin="round" stroke-width="1"/>
        <path id="Path_278871" data-name="Path 278871" d="M321.12,264.958l14.033-2.988-13.137,11.643Z" transform="translate(-222.522 -150.818)" fill="#263238" stroke="#263238" stroke-linecap="round" stroke-linejoin="round" stroke-width="1"/>
        <path id="Path_278872" data-name="Path 278872" d="M322.5,278.563a2.213,2.213,0,1,1-2.213-2.213A2.213,2.213,0,0,1,322.5,278.563Z" transform="translate(-222.848 -149.283)" fill="#fff" stroke="#263238" stroke-linecap="round" stroke-linejoin="round" stroke-width="1"/>
        <path id="Path_278873" data-name="Path 278873" d="M321.957,281.933a2.213,2.213,0,1,1-2.213-2.213A2.213,2.213,0,0,1,321.957,281.933Z" transform="translate(-222.906 -148.924)" fill="#fff" stroke="#263238" stroke-linecap="round" stroke-linejoin="round" stroke-width="1"/>
        <path id="Path_278874" data-name="Path 278874" d="M321.427,285.3a2.213,2.213,0,1,1-2.213-2.213A2.213,2.213,0,0,1,321.427,285.3Z" transform="translate(-222.962 -148.564)" fill="#fff" stroke="#263238" stroke-linecap="round" stroke-linejoin="round" stroke-width="1"/>
        <path id="Path_278875" data-name="Path 278875" d="M358.337,277.213A2.213,2.213,0,1,1,356.123,275,2.213,2.213,0,0,1,358.337,277.213Z" transform="translate(-219.023 -149.427)" fill="#fff" stroke="#263238" stroke-linecap="round" stroke-linejoin="round" stroke-width="1"/>
        <path id="Path_278876" data-name="Path 278876" d="M356.427,279.213A2.213,2.213,0,1,1,354.213,277,2.213,2.213,0,0,1,356.427,279.213Z" transform="translate(-219.227 -149.214)" fill="#fff" stroke="#263238" stroke-linecap="round" stroke-linejoin="round" stroke-width="1"/>
        <circle id="Ellipse_584" data-name="Ellipse 584" cx="2.236" cy="2.236" r="2.236" transform="translate(130.338 130.221)" fill="#fff" stroke="#263238" stroke-linecap="round" stroke-linejoin="round" stroke-width="1"/>
        <path id="Path_278877" data-name="Path 278877" d="M351.867,283.613a2.213,2.213,0,1,1-2.213-2.213A2.213,2.213,0,0,1,351.867,283.613Z" transform="translate(-219.714 -148.744)" fill="#fff" stroke="#263238" stroke-linecap="round" stroke-linejoin="round" stroke-width="1"/>
        <path id="Path_278878" data-name="Path 278878" d="M349.337,285.683a2.213,2.213,0,1,1-2.213-2.213A2.213,2.213,0,0,1,349.337,285.683Z" transform="translate(-219.984 -148.523)" fill="#fff" stroke="#263238" stroke-linecap="round" stroke-linejoin="round" stroke-width="1"/>
        <circle id="Ellipse_585" data-name="Ellipse 585" cx="2.236" cy="2.236" r="2.236" transform="translate(121.584 137.592)" fill="#fff" stroke="#263238" stroke-linecap="round" stroke-linejoin="round" stroke-width="1"/>
        <path id="Path_278879" data-name="Path 278879" d="M343.947,289.973a2.213,2.213,0,1,1-2.213-2.213A2.213,2.213,0,0,1,343.947,289.973Z" transform="translate(-220.559 -148.066)" fill="#fff" stroke="#263238" stroke-linecap="round" stroke-linejoin="round" stroke-width="1"/>
        <path id="Path_278880" data-name="Path 278880" d="M341.077,292.683a2.213,2.213,0,1,1-2.213-2.213A2.213,2.213,0,0,1,341.077,292.683Z" transform="translate(-220.865 -147.776)" fill="#fff" stroke="#263238" stroke-linecap="round" stroke-linejoin="round" stroke-width="1"/>
        <path id="Path_278881" data-name="Path 278881" d="M338.137,294.4a2.213,2.213,0,1,1-2.213-2.213A2.213,2.213,0,0,1,338.137,294.4Z" transform="translate(-221.179 -147.593)" fill="#fff" stroke="#263238" stroke-linecap="round" stroke-linejoin="round" stroke-width="1"/>
        <path id="Path_278882" data-name="Path 278882" d="M334.927,296.213A2.213,2.213,0,1,1,332.713,294,2.213,2.213,0,0,1,334.927,296.213Z" transform="translate(-221.522 -147.4)" fill="#fff" stroke="#263238" stroke-linecap="round" stroke-linejoin="round" stroke-width="1"/>
        <path id="Path_278883" data-name="Path 278883" d="M321.117,289.213A2.213,2.213,0,1,1,318.9,287,2.213,2.213,0,0,1,321.117,289.213Z" transform="translate(-222.995 -148.147)" fill="#fff" stroke="#263238" stroke-linecap="round" stroke-linejoin="round" stroke-width="1"/>
        <circle id="Ellipse_586" data-name="Ellipse 586" cx="2.236" cy="2.236" r="2.236" transform="translate(94.027 142.539)" fill="#fff" stroke="#263238" stroke-linecap="round" stroke-linejoin="round" stroke-width="1"/>
        <path id="Path_278884" data-name="Path 278884" d="M322.207,295.763a2.213,2.213,0,1,1-2.213-2.213A2.213,2.213,0,0,1,322.207,295.763Z" transform="translate(-222.879 -147.448)" fill="#fff" stroke="#263238" stroke-linecap="round" stroke-linejoin="round" stroke-width="1"/>
        <circle id="Ellipse_587" data-name="Ellipse 587" cx="2.236" cy="2.236" r="2.236" transform="translate(97.712 148.382)" fill="#fff" stroke="#263238" stroke-linecap="round" stroke-linejoin="round" stroke-width="1"/>
        <path id="Path_278885" data-name="Path 278885" d="M331.557,297.5a2.213,2.213,0,1,1-2.213-2.213A2.213,2.213,0,0,1,331.557,297.5Z" transform="translate(-221.881 -147.262)" fill="#fff" stroke="#263238" stroke-linecap="round" stroke-linejoin="round" stroke-width="1"/>
        <path id="Path_278886" data-name="Path 278886" d="M328.427,298.533a2.213,2.213,0,1,1-2.213-2.213A2.213,2.213,0,0,1,328.427,298.533Z" transform="translate(-222.215 -147.152)" fill="#fff" stroke="#263238" stroke-linecap="round" stroke-linejoin="round" stroke-width="1"/>
        <path id="Path_278887" data-name="Path 278887" d="M371.011,277s-10.182,33.71-16.147,49.149-21.747,49.459-21.747,49.459-14.73-20.341-17.187-45.253,7.8-47.81,7.8-47.81-27.07,9.307-33.732,11.764-14.243,5.987-17.043,12.65-34.109,95.055-35.514,98.563-4.206,3.862-.343,9.828,22.444,6.308,25.952,3.154,23.761-33.046,23.761-33.046l7.371,14.387,3.154,43.494-.7,7.371h94.391L389.924,425.1s35.1-88.382,37.916-103.466-1.405-23.152-7.747-27.668S371.011,277,371.011,277Z" transform="translate(-231.697 -149.214)" fill="#0b5cab" stroke="#263238" stroke-linecap="round" stroke-linejoin="round" stroke-width="1"/>
        <path id="Path_278888" data-name="Path 278888" d="M305.643,301.111a3.209,3.209,0,0,0-3.9,2.07c-1.029,2.855-1.815,5.456-1.815,5.456s-3.63,5.2-4.427,7.747-2.855,23.374-3.375,25.2S289.8,352.75,289.8,352.75l-2.855,4.427,7.526,12.982s4.161-.255,8.057-6.231,3.9-5.456,4.67-12.982,1.56-48.573,1.56-48.573S307.2,300.591,305.643,301.111Z" transform="translate(-226.17 -146.653)" fill="#fff" stroke="#263238" stroke-linecap="round" stroke-linejoin="round" stroke-width="1"/>
        <path id="Path_278889" data-name="Path 278889" d="M319.977,366.827s-.775-5.456.52-7.271,3.9-2.081,4.427-8.046-1.295-11.7-.255-18.183,3.9-5.2,3.63-8.057-4.427-3.375-5.711-1.295-2.6,4.67-2.6,4.67-1.04-16.6-1.56-22.079-4.15-7.005-4.15-7.005-1.56-4.427-3.641-3.375-2.335,2.335-2.335,2.335a9.96,9.96,0,0,0-3.641,3.121,9.562,9.562,0,0,0-.775,4.67,12.66,12.66,0,0,0-3.375,5.19c-.775,2.866-3.9,21.3-4.161,28.575s0,20,1.306,22.333,4.67,7.271,4.67,7.271l2.081,6.242S314.267,367.867,319.977,366.827Z" transform="translate(-225.176 -147.184)" fill="#fff" stroke="#263238" stroke-linecap="round" stroke-linejoin="round" stroke-width="1"/>
        <path id="Path_278890" data-name="Path 278890" d="M303.215,305.32s1.56.775,1.295,4.427-2.07,20.264-2.07,20.264" transform="translate(-224.516 -146.192)" fill="#fff" stroke="#263238" stroke-linecap="round" stroke-linejoin="round" stroke-width="1"/>
        <path id="Path_278891" data-name="Path 278891" d="M307.13,298.294s2.07-1.217,1.549,3.32-.509,27.1-.509,27.1" transform="translate(-224.015 -146.957)" fill="#fff" stroke="#263238" stroke-linecap="round" stroke-linejoin="round" stroke-width="1"/>
        <path id="Path_278892" data-name="Path 278892" d="M312.53,299.22s1.04,21.027.52,27.015" transform="translate(-223.439 -146.843)" fill="#fff" stroke="#263238" stroke-linecap="round" stroke-linejoin="round" stroke-width="1"/>
        <path id="Path_278893" data-name="Path 278893" d="M317.69,325.5s1.262,7.636,1.771,9.451" transform="translate(-222.888 -144.039)" fill="#fff" stroke="#263238" stroke-linecap="round" stroke-linejoin="round" stroke-width="1"/>
        <path id="Path_278894" data-name="Path 278894" d="M293.474,348.78,304.7,363.953s-24.148,36.765-27.922,42.763-15.992,20.031-22.876,21.8-10.658,0-14.387-5.323-9.33-14.387-6.884-20.441,20.872-23.363,26.65-26.472S293.474,348.78,293.474,348.78Z" transform="translate(-232.029 -141.554)" fill="#0b5cab" stroke="#263238" stroke-linecap="round" stroke-linejoin="round" stroke-width="1"/>
        <path id="Path_278895" data-name="Path 278895" d="M405.5,291.54s5.534.443,7.681.775,6.1,5.666,7.647,9,1.56,15.992.885,23.1-15.295,60.238-18.4,76.673-13.79,40.948-15.782,43.815-5.777,5.534-9.551,5.323-27.192-16.523-35.857-24.956-41.767-52.015-41.767-52.015,4.228-6.64,8-8.854,11.775-3.553,11.775-3.553S334.78,373.5,346.112,382.8a172.156,172.156,0,0,0,22.466,15.582s4.892-28.31,5.534-31.641,5.921-31.973,5.921-31.973" transform="translate(-224.739 -147.662)" fill="#0b5cab" stroke="#263238" stroke-linecap="round" stroke-linejoin="round" stroke-width="1"/>
        <path id="Path_278896" data-name="Path 278896" d="M362,388.08s8,3.11,9.96,14.885" transform="translate(-218.16 -137.361)" fill="none" stroke="#263238" stroke-linecap="round" stroke-linejoin="round" stroke-width="1"/>
        <path id="Path_278897" data-name="Path 278897" d="M362.37,390.69s4.67,3.32,3.564,10.658" transform="translate(-218.121 -137.082)" fill="none" stroke="#263238" stroke-linecap="round" stroke-linejoin="round" stroke-width="1"/>
        <path id="Path_278898" data-name="Path 278898" d="M276.932,361.4a29.106,29.106,0,0,1,1.107-15.992c3.11-8.444,9.96-31.995,9.96-31.995" transform="translate(-227.306 -145.329)" fill="none" stroke="#263238" stroke-linecap="round" stroke-linejoin="round" stroke-width="1"/>
      </g>
      <g id="freepik--Device--inject-3" transform="translate(75.226 260.663)">
        <path id="Path_278899" data-name="Path 278899" d="M247.146,455.639l67.708-17.054c1.051-.255,1.45-3.475.376-3.475l-99.88,1.682Z" transform="translate(-73.206 -357.917)" fill="#fff" stroke="#263238" stroke-linecap="round" stroke-linejoin="round" stroke-width="1"/>
        <path id="Path_278900" data-name="Path 278900" d="M247.146,453.927l67.708-17.054a.908.908,0,0,0-.221-1.793H215.35Z" transform="translate(-73.206 -357.92)" fill="#fff" stroke="#263238" stroke-linecap="round" stroke-linejoin="round" stroke-width="1"/>
        <path id="Path_278901" data-name="Path 278901" d="M238.286,440.56h34.175l-38.071,7.791Z" transform="translate(-71.175 -357.335)" fill="#949494" stroke="#263238" stroke-linecap="round" stroke-linejoin="round" stroke-width="1"/>
        <path id="Path_278902" data-name="Path 278902" d="M260.629,463.082H106.8L89.089,371.746a5.368,5.368,0,0,1,5.268-6.386H237.3a5.356,5.356,0,0,1,5.257,4.349Z" transform="translate(-86.69 -365.36)" fill="#fff" stroke="#263238" stroke-linecap="round" stroke-linejoin="round" stroke-width="1"/>
        <path id="Path_278903" data-name="Path 278903" d="M258.438,463.082H104.717L87.009,371.746a5.367,5.367,0,0,1,5.257-6.386h142.81a5.368,5.368,0,0,1,5.268,4.349Z" transform="translate(-86.912 -365.36)" fill="#c2c2c2" stroke="#263238" stroke-linecap="round" stroke-linejoin="round" stroke-width="1"/>
        <circle id="Ellipse_588" data-name="Ellipse 588" cx="11.222" cy="11.222" r="11.222" transform="translate(68.713 38.657)" fill="#999"/>
      </g>
      <g id="freepik--Mug--inject-3" transform="translate(427.013 264.592)">
        <path id="Path_278904" data-name="Path 278904" d="M440.228,410.064s5.943-3.132,8.854-.885,4.969,8.278,4.969,13.734-2.213,10.912-6.1,13.491-10.923.642-10.923.642l.321-5.467s5.467,2.213,8.677-1.926,1.284-12.174-.642-14.122-6.419,2.568-6.419,2.568Z" transform="translate(-401.339 -364.7)" fill="#fff" stroke="#263238" stroke-linecap="round" stroke-linejoin="round" stroke-width="1"/>
        <path id="Path_278905" data-name="Path 278905" d="M446.47,401.53H404.78l4.172,51.528h33.356Z" transform="translate(-404.78 -365.429)" fill="#fff" stroke="#263238" stroke-linecap="round" stroke-linejoin="round" stroke-width="1"/>
        <path id="Path_278906" data-name="Path 278906" d="M414.317,368.91c0,8.068-4.427,8.068-4.427,16.136s4.427,8.079,4.427,16.147" transform="translate(-404.235 -368.91)" fill="none" stroke="#263238" stroke-linecap="round" stroke-linejoin="round" stroke-width="1"/>
        <path id="Path_278907" data-name="Path 278907" d="M421.747,377.56a14,14,0,0,0-1.417,6.563c0,8.079,4.427,8.079,4.427,16.147" transform="translate(-403.121 -367.987)" fill="none" stroke="#263238" stroke-linecap="round" stroke-linejoin="round" stroke-width="1"/>
        <path id="Path_278908" data-name="Path 278908" d="M424.428,368.91a14.187,14.187,0,0,1-1.018,5.677" transform="translate(-402.792 -368.91)" fill="none" stroke="#263238" stroke-linecap="round" stroke-linejoin="round" stroke-width="1"/>
        <path id="Path_278909" data-name="Path 278909" d="M431.74,388.74c1.317,3.1,3.32,4.847,3.32,10.337" transform="translate(-401.903 -366.794)" fill="none" stroke="#263238" stroke-linecap="round" stroke-linejoin="round" stroke-width="1"/>
        <path id="Path_278910" data-name="Path 278910" d="M435.207,368.91c0,8.068-4.427,8.068-4.427,16.136" transform="translate(-402.006 -368.91)" fill="none" stroke="#263238" stroke-linecap="round" stroke-linejoin="round" stroke-width="1"/>
      </g>
    </g>
  </g>
</svg>
